Face Off - Rock Your Body - S02E03

Releaser:
r3mnants

[img]http://s15.postimage.org/6ktfe8ywp/fo1.png[/img]
[img]http://s15.postimage.org/omckc1sxl/fo2.png[/img]

Format : MPEG-4
Format profile : Base Media
Codec ID : isom
File size : 589 MiB
Duration : 42mn 40s
Overall bit rate mode : Variable
Overall bit rate : 1 930 Kbps
Writing application : Lavf50.4.0

Video
ID : 1
Format : AVC
Format/Info : Advanced Video Codec
Format profile : Main@L2.1
Format settings, CABAC : Yes
Format settings, ReFrames : 2 frames
Codec ID : avc1
Codec ID/Info : Advanced Video Coding
Duration : 42mn 39s
Bit rate : 1 796 Kbps
Width : 1 024 pixels
Height : 576 pixels
Display aspect ratio : 16:9
Frame rate mode : Constant
Frame rate : 29.970 fps
Color space : YUV
Chroma subsampling : 4:2:0
Bit depth : 8 bits
Scan type : Progressive
Bits/(Pixel*Frame) : 0.102
Stream size : 548 MiB (93%)

Audio
ID : 2
Format : AAC
Format/Info : Advanced Audio Codec
Format profile : LC
Codec ID : 40
Duration : 42mn 40s
Bit rate mode : Variable
Bit rate : 128 Kbps
Channel(s) : 2 channels
Channel positions : Front: L R
Sampling rate : 48.0 KHz
Compression mode : Lossy
Stream size : 39.1 MiB (7%)